<svg width="871" height="871" viewBox="0 0 871 871" fill="none" xmlns="http://www.w3.org/2000/svg">
<g clip-path="url(#clip0_14_150108)">
<mask id="mask0_14_150108" style="mask-type:luminance" maskUnits="userSpaceOnUse" x="0" y="0" width="871" height="871">
<path d="M870.85 0H0V870.85H870.85V0Z" fill="white"/>
</mask>
<g mask="url(#mask0_14_150108)">
<path d="M103.355 227.3C103.355 236.145 103.355 621.522 103.355 624.753C105.788 624.986 110.09 626.092 115.249 627.36C138.734 633.13 178.777 642.668 196.203 645.15C238.405 651.159 265.78 650.65 297.571 649.453C369.713 646.737 433.156 624.115 475.773 614.869C504.025 608.739 532.372 603.051 552.724 600.731C583.343 597.241 605.965 597.751 633.689 599.941C688.236 604.249 735.122 614.696 767.294 625.348C767.294 625.432 767.251 625.432 767.251 625.39C767.463 589.331 767.017 537.256 767.038 493.19C767.06 448.527 767.293 403.865 767.379 359.203C767.463 315.178 767.379 250.092 767.549 227.13C644.617 190.561 579.135 200.629 545.584 203.744C470.123 212.95 372.493 247.308 325.32 249.667C223.948 261.829 149.279 235.294 103.355 227.3Z" fill="#2D95C0"/>
<path d="M361.94 476.733L318.418 456.633L371.752 469.368L361.94 476.733Z" fill="#FFCF00"/>
<path d="M361.94 476.733L318.418 456.633L371.752 469.368L361.94 476.733Z" stroke="black" stroke-width="1.6" stroke-linecap="round" stroke-linejoin="round"/>
<path d="M628.813 247.283L564.898 451.108L573.909 450.186L633.159 247.547L628.813 247.283Z" fill="#FFCF00"/>
<path d="M628.813 247.283L564.898 451.108L573.909 450.186L633.159 247.547L628.813 247.283Z" stroke="black" stroke-width="1.6" stroke-linecap="round" stroke-linejoin="round"/>
<path d="M533.846 243.727L465.254 464.22L473.33 464.999L537.597 243.991L533.846 243.727Z" fill="#FFCF00"/>
<path d="M533.846 243.727L465.254 464.22L473.33 464.999L537.597 243.991L533.846 243.727Z" stroke="black" stroke-width="1.6" stroke-linecap="round" stroke-linejoin="round"/>
<path d="M535.676 253.221C537.652 246.635 539.758 241.696 541.207 236.295C497.506 234.892 508.392 250.03 477.031 246.811C476.714 254.835 490.532 253.262 496.164 253.488C491.686 255.331 486.621 262.447 476.16 262.932C486.281 272.142 512.815 244.417 535.676 253.221Z" fill="#FFCF00"/>
<path d="M535.676 253.221C537.652 246.635 539.758 241.696 541.207 236.295C497.506 234.892 508.392 250.03 477.031 246.811C476.714 254.835 490.532 253.262 496.164 253.488C491.686 255.331 486.621 262.447 476.16 262.932C486.281 272.142 512.815 244.417 535.676 253.221Z" stroke="black" stroke-width="1.6" stroke-linecap="round" stroke-linejoin="round"/>
<path d="M454.858 459.549C449.2 435.597 489.17 403.789 552.666 459.722C551.875 449.843 491.891 374.195 572.111 273.469C539.313 285.126 493.253 311.943 473.534 323.969C448.69 358.547 426.919 406.512 454.858 459.549Z" fill="#FFCF00"/>
<path d="M454.858 459.549C449.2 435.597 489.17 403.789 552.666 459.722C551.875 449.843 491.891 374.195 572.111 273.469C539.313 285.126 493.253 311.943 473.534 323.969C448.69 358.547 426.919 406.512 454.858 459.549Z" stroke="black" stroke-width="1.6" stroke-linecap="round" stroke-linejoin="round"/>
<path d="M632.063 253.06C634.039 246.474 636.145 241.961 637.595 236.56C594.966 228.684 597.948 245.304 572.526 235.425C571.142 239.902 581.614 243.957 591.361 245.8C586.883 247.644 582.932 252.057 571.867 251.333C585.039 261.476 607.564 241.665 632.063 253.06Z" fill="#FFCF00"/>
<path d="M632.063 253.06C634.039 246.474 636.145 241.961 637.595 236.56C594.966 228.684 597.948 245.304 572.526 235.425C571.142 239.902 581.614 243.957 591.361 245.8C586.883 247.644 582.932 252.057 571.867 251.333C585.039 261.476 607.564 241.665 632.063 253.06Z" stroke="black" stroke-width="1.6" stroke-linecap="round" stroke-linejoin="round"/>
<path d="M508.66 282.613C508.66 282.613 526.762 271.461 540.914 283.394L546.443 268.289C546.443 268.289 527.952 259.215 509.583 268.408L508.66 282.613Z" fill="#FFCF00"/>
<path d="M508.66 282.613C508.66 282.613 526.762 271.461 540.914 283.394L546.443 268.289C546.443 268.289 527.952 259.215 509.583 268.408L508.66 282.613Z" stroke="black" stroke-width="1.6" stroke-linecap="round" stroke-linejoin="round"/>
<path d="M562.965 451.101C556.187 394.945 610.78 397.557 627.179 414.351C604.656 402.101 599.73 328.609 668.441 272.188C637.83 275.031 598.327 286.683 573.992 295.677C541.9 335.754 531.945 404.274 562.965 451.101Z" fill="#FFCF00"/>
<path d="M562.965 451.101C556.187 394.945 610.78 397.557 627.179 414.351C604.656 402.101 599.73 328.609 668.441 272.188C637.83 275.031 598.327 286.683 573.992 295.677C541.9 335.754 531.945 404.274 562.965 451.101Z" stroke="black" stroke-width="1.6" stroke-linecap="round" stroke-linejoin="round"/>
<path d="M404.231 432.792L440.354 284.689L436.249 283.305L395.102 433.72L404.231 432.792Z" fill="#FFCF00"/>
<path d="M404.231 432.792L440.354 284.689L436.249 283.305L395.102 433.72L404.231 432.792Z" stroke="black" stroke-width="1.6" stroke-linecap="round" stroke-linejoin="round"/>
<path d="M384.337 419.751C382.526 400.217 409.74 380.827 427.971 409.376C410.931 357.185 463.658 309.561 485.269 284.59C457.025 296.975 419.946 318.916 399.315 328.38C375.382 355.825 368.926 394.264 384.337 419.751Z" fill="#FFCF00"/>
<path d="M384.337 419.751C382.526 400.217 409.74 380.827 427.971 409.376C410.931 357.185 463.658 309.561 485.269 284.59C457.025 296.975 419.946 318.916 399.315 328.38C375.382 355.825 368.926 394.264 384.337 419.751Z" stroke="black" stroke-width="1.6" stroke-linecap="round" stroke-linejoin="round"/>
<path d="M439.606 287.181C441.582 280.596 443.293 271.762 444.743 266.361C416.373 270.269 412.633 288.299 385.823 285.429C384.439 289.906 392.562 294.082 400.273 293.623C395.795 295.467 388.267 298.334 379.602 300.628C387.628 317.894 423.262 284.811 439.606 287.181Z" fill="#FFCF00"/>
<path d="M439.606 287.181C441.582 280.596 443.293 271.762 444.742 266.361C416.373 270.269 412.633 288.299 385.823 285.429C384.439 289.906 392.562 294.082 400.273 293.623C395.795 295.467 388.267 298.334 379.602 300.628C387.628 317.894 423.262 284.811 439.606 287.181Z" stroke="black" stroke-width="1.6" stroke-linecap="round" stroke-linejoin="round"/>
<path d="M640.566 462.648C654.33 445.971 665.726 434.234 671.643 413.84C666.334 404.108 634.043 410.762 622.963 410.393C620.707 419.889 597.844 435.166 568.341 446.981C514.26 468.639 437.864 478.664 425.185 420.115C417.082 420.215 396.883 423.595 391.391 429.553C387.637 460.376 401.238 464.001 390.668 473.307C376.575 476.247 359.141 450.584 343.496 483.132C371.132 476.076 397.155 515.537 431.294 527.648C437.596 519.864 455.496 510.816 485.676 526.284C512.155 539.856 479.448 477.888 562.65 511.444C575.749 516.728 557.55 469.954 633.648 509.033C654.214 519.595 629.524 483.109 667.305 496.439C662.388 481.657 652.969 469.103 640.566 462.648Z" fill="#FFCF00"/>
<path d="M640.566 462.648C654.33 445.971 665.726 434.234 671.643 413.84C666.334 404.108 634.043 410.762 622.963 410.393C620.707 419.889 597.844 435.166 568.341 446.981C514.26 468.639 437.864 478.664 425.185 420.115C417.082 420.215 396.883 423.595 391.391 429.553C387.637 460.376 401.238 464.001 390.668 473.307C376.575 476.247 359.141 450.584 343.496 483.132C371.132 476.076 397.155 515.537 431.294 527.648C437.596 519.864 455.496 510.816 485.676 526.284C512.155 539.856 479.448 477.888 562.65 511.444C575.749 516.728 557.55 469.954 633.648 509.033C654.214 519.595 629.524 483.109 667.305 496.439C662.388 481.657 652.969 469.103 640.566 462.648Z" stroke="black" stroke-width="1.6" stroke-linecap="round" stroke-linejoin="round"/>
<path d="M677.495 395.014L717.732 328.7C717.732 328.7 715.728 321.297 710.386 325.317L668.934 393.302L677.495 395.014Z" fill="#FFCF00"/>
<path d="M677.495 395.014L717.732 328.7C717.732 328.7 715.728 321.297 710.386 325.317L668.934 393.302L677.495 395.014Z" stroke="black" stroke-width="1.6" stroke-linecap="round" stroke-linejoin="round"/>
<path d="M630.554 394.516C630.554 394.516 620.822 405.83 615.68 411.7C642.933 412.293 681.047 418.503 681.047 418.503L677.292 400.919L630.554 394.516Z" fill="#FFCF00"/>
<path d="M630.554 394.516C630.554 394.516 620.822 405.83 615.68 411.7C642.933 412.293 681.047 418.503 681.047 418.503L677.292 400.919L630.554 394.516Z" stroke="black" stroke-width="1.6" stroke-linecap="round" stroke-linejoin="round"/>
<path d="M628.289 394.202L686.488 402.869L684.3 385.117L634.611 379.078L628.289 394.202Z" fill="#FFCF00"/>
<path d="M628.289 394.202L686.488 402.869L684.3 385.117L634.611 379.078L628.289 394.202Z" stroke="black" stroke-width="1.6" stroke-linecap="round" stroke-linejoin="round"/>
<path d="M662.29 319.4L712.828 337.163L698.361 361.401L644.547 349.005L662.29 319.4Z" fill="#FFCF00"/>
<path d="M662.29 319.4L712.828 337.163L698.361 361.401L644.547 349.005L662.29 319.4Z" stroke="black" stroke-width="1.6" stroke-linecap="round" stroke-linejoin="round"/>
<path d="M432.693 426.763L384.449 438.754V420.071L432.693 408.291V426.763Z" fill="#FFCF00"/>
<path d="M432.693 426.763L384.449 438.754V420.071L432.693 408.291V426.763Z" stroke="black" stroke-width="1.6" stroke-linecap="round" stroke-linejoin="round"/>
<path d="M349.07 479.891C383.718 470.124 385.079 495.977 449.021 498.226C494.612 499.831 565.372 476.587 640.394 462.988" stroke="black" stroke-width="1.6" stroke-linecap="round" stroke-linejoin="round"/>
<path d="M316.379 579.454C334.733 574.215 347.022 584.166 358.974 582.85C369.431 581.699 379.298 561.543 403.741 565.133" stroke="#F1F1F1" stroke-width="3.2" stroke-linecap="round" stroke-linejoin="round"/>
<path d="M295.289 623.486C315.343 614.696 325.713 629.29 337.736 629.493C350.025 629.699 360.246 610.953 384.97 614.966" stroke="#F1F1F1" stroke-width="3.2" stroke-linecap="round" stroke-linejoin="round"/>
<path d="M681.609 545.367C703.481 558.227 701.1 534.756 727.593 554.748" stroke="#F1F1F1" stroke-width="3.2" stroke-linecap="round" stroke-linejoin="round"/>
<path d="M545.988 565.244C590.204 545.981 594.959 563.735 611.842 563.367C630.966 562.949 630.004 540.198 686.324 566.764" stroke="#F1F1F1" stroke-width="3.2" stroke-linecap="round" stroke-linejoin="round"/>
<path d="M456.418 558.96C517.406 533.054 509.845 548.395 533.866 548.026C561.075 547.609 562.311 515.705 629.85 537.464" stroke="#F1F1F1" stroke-width="3.2" stroke-linecap="round" stroke-linejoin="round"/>
<path d="M365.723 600.674C400.387 585.783 402.258 598.199 416.227 593.887C433.068 588.689 438.486 568.435 479.333 575.081" stroke="#F1F1F1" stroke-width="3.2" stroke-linecap="round" stroke-linejoin="round"/>
<path d="M462.566 600.422C493.256 575.917 500.643 595.028 515.306 593.707C530.589 592.33 536.047 569.915 574.419 586.812C587.143 592.415 593.267 566.732 635.993 583.901C643.309 586.841 648.716 591.905 660.937 585.919" stroke="#F1F1F1" stroke-width="3.2" stroke-linecap="round" stroke-linejoin="round"/>
<path d="M769.762 537.938C682.053 470.971 714.028 531.52 696.515 518.904C620.162 463.898 657.167 522.111 632.116 510.22C551.935 472.161 579.15 518.467 563.159 513.524C474.037 485.975 511.284 539.728 484.485 528.365C422.981 502.286 437.638 547.609 415.217 542.247C352.592 527.27 368.283 561.988 349.967 558.528C328.359 554.446 314.964 535.811 282.846 559.174C278.774 562.136 272.218 559.374 264.988 555.902" stroke="#F1F1F1" stroke-width="3.2" stroke-linecap="round" stroke-linejoin="round"/>
<path d="M769.762 533.688C682.053 466.721 714.028 527.27 696.515 514.654C620.162 459.648 657.167 517.861 632.116 505.97C551.935 467.911 579.15 514.217 563.159 509.274C474.037 481.725 511.284 535.478 484.485 524.115C422.981 498.036 437.638 543.359 415.217 537.997C352.592 523.02 368.283 557.738 349.967 554.278C328.359 550.196 314.964 531.561 282.846 554.924C278.774 557.886 272.218 555.124 264.988 551.652" stroke="#111111" stroke-width="3.2" stroke-linecap="round" stroke-linejoin="round"/>
<path d="M267.452 516.085C267.617 458.677 267.995 405.499 267.941 383.947C267.917 375.11 267.678 259.241 267.634 252.751C190.559 254.643 150.189 235.826 104.266 227.832C104.266 236.677 104.266 622.054 104.266 625.285C122.524 626.455 171.365 647.609 267.112 650.514C267.014 644.658 267.289 572.84 267.452 516.085Z" fill="#CC0000"/>
<path d="M267.202 367.25L204.901 315.654L266.862 269.669L266.692 251.627L245.935 251.713L184.385 294.872L124.878 231.302L104.659 227.305V243.738L162.851 305.873L103.809 340.964V358.75L124.46 363.512L183.28 327.42L245.843 383.923H267.032L267.202 367.25Z" fill="#08672F"/>
<path d="M197.404 299.447V245.675L171.253 240.572L171.287 294.515C171.287 294.515 131.99 287.448 104.66 278.186C104.776 284.727 104.776 299.696 104.66 304.992C119.233 309.731 171.287 321.107 171.287 321.107L171.253 376.27L197.404 380.522V326.253C197.404 326.253 244.281 332.139 267.328 331.992C267.412 326.951 267.158 308.753 267.328 305.188C233.735 304.585 197.404 299.447 197.404 299.447Z" fill="#F2F2F2"/>
<path d="M233.689 554.283C231.315 553.409 230.38 558.827 224.502 558.531C221.1 558.359 220.236 548.851 209.334 544.462C199.409 535.533 177.216 542.661 170.155 535.246C169.927 513.666 146.764 514.313 148.609 527.964C146.278 532.374 141.256 535.533 136.402 524.249C146.331 508.738 106.137 512.644 127.028 523.531C126.337 529.212 137.433 550.403 146.972 542.843C146.726 545.51 147.979 549.851 154.072 551.12C148.149 551.764 144.712 551.09 141.8 551.096C128.247 531.523 125.357 561.971 139.619 556.911C145.087 560.44 169.58 568.603 167.561 554.802C178.595 555.676 187.269 544.28 193.202 546.638C194.339 547.864 190.923 549.644 190.254 551.177C188.921 554.24 200.366 566.053 189.223 559.942C179.788 547.099 177.82 564.691 187.642 566.166C195.944 567.413 206.534 570.289 208.51 563.471C209.321 560.674 202.444 561.928 205.704 551.556C207.848 556.356 209.891 559.881 211.807 561.16C224.699 566.544 226.28 557.295 236.209 566.779C216.847 565.643 232.85 581.054 237.74 571.373C248.261 579.918 246.038 558.827 233.689 554.283Z" fill="#FFCF00"/>
<path d="M233.689 554.283C231.315 553.409 230.38 558.827 224.502 558.531C221.1 558.359 220.236 548.851 209.334 544.462C199.409 535.533 177.216 542.661 170.155 535.246C169.927 513.666 146.764 514.313 148.609 527.964C146.278 532.374 141.256 535.533 136.402 524.249C146.331 508.738 106.137 512.644 127.028 523.531C126.337 529.212 137.433 550.403 146.972 542.843C146.726 545.51 147.979 549.851 154.072 551.12C148.149 551.764 144.712 551.09 141.8 551.096C128.247 531.523 125.357 561.971 139.619 556.911C145.087 560.44 169.58 568.603 167.561 554.802C178.595 555.676 187.269 544.28 193.202 546.638C194.339 547.864 190.923 549.644 190.254 551.177C188.921 554.24 200.366 566.053 189.223 559.942C179.788 547.099 177.82 564.691 187.642 566.166C195.944 567.413 206.534 570.289 208.51 563.471C209.321 560.674 202.444 561.928 205.704 551.556C207.848 556.356 209.891 559.881 211.807 561.16C224.699 566.544 226.28 557.295 236.209 566.779C216.847 565.643 232.85 581.054 237.74 571.373C248.261 579.918 246.038 558.827 233.689 554.283Z" stroke="#670300" stroke-width="0.8" stroke-linecap="round" stroke-linejoin="round"/>
<path d="M233.689 610.751C231.315 609.878 230.38 615.296 224.502 614.999C221.1 614.828 220.236 605.319 209.334 600.931C200.544 591.257 175.273 599.195 170.155 591.715C169.927 570.36 147.087 570.684 148.609 584.433C146.278 588.843 140.446 591.742 136.402 580.718C146.331 565.207 106.137 569.112 127.028 579.999C126.337 585.68 137.433 606.872 146.972 599.312C146.726 601.979 147.979 606.32 154.072 607.589C148.149 608.233 144.712 607.559 141.8 607.565C128.247 587.992 125.357 618.439 139.619 613.38C145.087 616.909 169.58 625.071 167.561 611.271C178.595 612.145 187.269 600.749 193.202 603.107C194.339 604.333 190.923 606.113 190.254 607.646C188.921 610.709 200.366 622.521 189.223 616.411C179.788 603.568 177.82 621.159 187.642 622.634C195.944 623.882 206.534 626.757 208.51 619.94C209.321 617.143 202.444 618.397 205.704 608.024C207.848 612.825 209.891 616.349 211.807 617.628C224.699 623.013 226.28 613.764 236.209 623.248C216.847 622.112 232.85 637.523 237.74 627.842C248.261 636.387 246.038 615.296 233.689 610.751Z" fill="#FFCF00"/>
<path d="M233.689 610.751C231.315 609.878 230.38 615.296 224.502 614.999C221.1 614.828 220.236 605.319 209.334 600.931C200.544 591.257 175.273 599.195 170.155 591.715C169.927 570.36 147.087 570.684 148.609 584.433C146.278 588.843 140.446 591.742 136.402 580.718C146.331 565.207 106.137 569.112 127.028 579.999C126.337 585.68 137.433 606.872 146.972 599.312C146.726 601.979 147.979 606.32 154.072 607.589C148.149 608.233 144.712 607.559 141.8 607.565C128.247 587.992 125.357 618.439 139.619 613.38C145.087 616.909 169.58 625.071 167.561 611.271C178.595 612.145 187.269 600.749 193.202 603.107C194.339 604.333 190.923 606.113 190.254 607.646C188.921 610.709 200.366 622.521 189.223 616.411C179.788 603.568 177.82 621.159 187.642 622.634C195.944 623.882 206.534 626.757 208.51 619.94C209.321 617.143 202.444 618.397 205.704 608.024C207.848 612.825 209.891 616.349 211.807 617.628C224.699 623.013 226.28 613.764 236.209 623.248C216.847 622.112 232.85 637.523 237.74 627.842C248.261 636.387 246.038 615.296 233.689 610.751Z" stroke="#670300" stroke-width="0.8" stroke-linecap="round" stroke-linejoin="round"/>
<path d="M268.05 383.498C211.249 386.44 157.5 371.472 103.466 357.559C103.072 382.017 103.752 463.661 103.466 490.303C153.758 503.802 224.686 518.769 268.05 516.837C268.229 484.071 267.548 420.543 268.05 383.498Z" fill="#F2F2F2"/>
<path d="M233.18 516.576L237.886 516.353C238.07 514.256 239.903 500.545 235.881 493.844C232.937 498.439 233.231 515.322 233.18 516.576Z" fill="black"/>
<path d="M180.539 508.019L184.608 508.774C184.792 506.677 186.083 491.312 182.279 487.041C179.442 491.312 180.59 506.766 180.539 508.019Z" fill="black"/>
<path d="M129.32 497.015L133.41 497.771C133.594 495.674 135.421 484.022 131.458 475.984C128.294 483.211 129.372 495.762 129.32 497.015Z" fill="black"/>
<path d="M226.645 439.409C226.812 439.591 242.289 440.952 244.116 441.162C234.558 434.128 240.876 419.874 235.116 406.078C230.509 417.282 236.827 429.431 226.645 439.409Z" fill="black"/>
<path d="M173.375 431.989C175.189 432.448 189.393 434.66 190.689 434.445C183.184 426.751 186.884 406.51 181.879 399.275C177.955 409.7 182.503 423.009 173.375 431.989Z" fill="black"/>
<path d="M122.285 419.86L139.746 423.953C130.541 413.74 135.582 398.653 130.692 387.688C126.673 393.147 130.116 415.014 122.285 419.86Z" fill="black"/>
<path d="M252.836 483.846C253.003 484.028 266.726 484.396 267.193 484.393C261.285 465.069 265.82 461.02 261.52 450.461C256.424 465.393 262.58 473.17 252.836 483.846Z" fill="black"/>
<path d="M199.875 478.732C201.689 479.19 215.892 481.403 217.187 481.188C207.181 469.768 212.849 454.702 208.431 446.283C203.779 451.138 211.23 464.907 199.875 478.732Z" fill="black"/>
<path d="M148.223 468.846C149.028 469.281 165.389 472.683 165.685 472.939C152.916 457.942 162.797 446.764 156.971 436.779C151.458 443.848 157.937 459.076 148.223 468.846Z" fill="black"/>
<path d="M251.816 397.1C251.984 397.282 265.972 397.649 266.439 397.647C263.049 390.351 262.412 385.961 262.322 383.695C260.913 383.761 259.68 383.759 258.661 383.762C258.361 386.779 259 391.585 251.816 397.1Z" fill="black"/>
<path d="M198.855 391.988C200.669 392.446 214.872 394.659 216.168 394.444C209.971 388.014 209.552 383.202 209.451 380.648C208.78 380.543 206.187 380.233 205.365 380.062C205.188 382.882 204.572 387.12 198.855 391.988Z" fill="black"/>
<path d="M147.203 382.1L164.665 386.193C163.498 384.228 158.349 380.577 158.308 371.255C157.074 370.882 154.864 370.411 153.691 370.23C153.035 379.022 147.38 380.316 147.203 382.1Z" fill="black"/>
<g opacity="0.35">
<mask id="mask1_14_150108" style="mask-type:luminance" maskUnits="userSpaceOnUse" x="103" y="200" width="665" height="451">
<path d="M103.355 227.3C103.355 236.145 103.355 621.522 103.355 624.753C105.788 624.986 110.09 626.092 115.249 627.36C138.734 633.13 178.777 642.668 196.203 645.15C238.405 651.159 265.78 650.65 297.571 649.453C369.713 646.737 433.156 624.115 475.773 614.869C504.025 608.739 532.372 603.051 552.724 600.731C583.343 597.241 605.965 597.751 633.689 599.941C688.236 604.249 735.122 614.696 767.294 625.348C767.294 625.432 767.251 625.432 767.251 625.39C767.463 589.331 767.017 537.256 767.038 493.19C767.06 448.527 767.293 403.865 767.379 359.203C767.463 315.178 767.379 250.092 767.549 227.13C644.617 190.561 579.135 200.629 545.584 203.744C470.123 212.95 372.493 247.308 325.32 249.667C223.948 261.829 149.279 235.294 103.355 227.3Z" fill="url(#paint0_linear_14_150108)"/>
</mask>
<g mask="url(#mask1_14_150108)">
<path d="M103.355 227.3C103.355 236.145 103.355 621.522 103.355 624.753C105.788 624.986 110.09 626.092 115.249 627.36C138.734 633.13 178.777 642.668 196.203 645.15C238.405 651.159 265.78 650.65 297.571 649.453C369.713 646.737 433.156 624.115 475.773 614.869C504.025 608.739 532.372 603.051 552.724 600.731C583.343 597.241 605.965 597.751 633.689 599.941C688.236 604.249 735.122 614.696 767.294 625.348C767.294 625.432 767.251 625.432 767.251 625.39C767.463 589.331 767.017 537.256 767.038 493.19C767.06 448.527 767.293 403.865 767.379 359.203C767.463 315.178 767.379 250.092 767.549 227.13C644.617 190.561 579.135 200.629 545.584 203.744C470.123 212.95 372.493 247.308 325.32 249.667C223.948 261.829 149.279 235.294 103.355 227.3Z" fill="url(#paint1_linear_14_150108)"/>
</g>
</g>
<g opacity="0.15">
<path d="M102.844 226.619C102.895 235.186 102.844 237.505 102.957 244.566C115.6 239.886 170.369 270.162 269.365 269.739C385.711 269.242 492.152 216.754 604.376 216.554C683.354 216.414 766.697 245.329 766.577 246.279C766.697 234.103 767.207 228.49 767.207 228.49C767.207 228.49 683.354 199.065 605.453 199.405C492.511 199.898 385.02 251.112 269.7 252.729C170.648 254.116 115.26 222.537 102.844 226.619Z" fill="white"/>
</g>
<g opacity="0.15">
<path d="M605.453 578.021C485.031 578.021 389.782 628.708 270.72 632.109C247.429 632.775 226.742 631.224 206.888 628.201C173.111 623.061 141.74 613.666 104.034 603.705C103.694 608.297 104.034 617.652 104.034 622.755C141.351 633.887 172.59 642.39 206.317 647.084C226.699 649.921 247.991 651.366 272.081 651.159C391.142 650.139 484.351 597.582 604.433 597.412C610.58 597.403 617.174 597.541 624.199 597.873C660.914 599.606 709.385 606.603 767.207 625.306C767.207 625.306 767.037 608.637 767.377 603.705C709.675 587.115 660.782 580.192 624.018 578.471C617.434 578.163 611.24 578.021 605.453 578.021Z" fill="black"/>
</g>
<path d="M266.724 252.218C189.649 254.111 149.279 235.295 103.355 227.301C103.355 236.145 103.355 621.522 103.355 624.754C121.613 625.924 170.456 647.078 266.203 649.983" stroke="#5B0000" stroke-width="6.4" stroke-linecap="round" stroke-linejoin="round"/>
<path d="M266.969 649.812L278.527 650.253C278.527 650.253 288.132 650.415 297.572 649.453C369.714 646.737 433.157 624.115 475.774 614.869C504.026 608.739 532.373 603.051 552.725 600.731C583.345 597.241 605.966 597.751 633.691 599.941C688.237 604.249 735.123 614.696 767.295 625.348C767.295 625.432 767.252 625.432 767.252 625.39C767.464 589.331 767.018 537.256 767.039 493.19C767.061 448.527 767.294 403.865 767.38 359.203C767.464 315.178 767.38 250.092 767.55 227.13C644.618 190.561 579.136 200.629 545.585 203.744C454.476 213.971 354.805 259.213 268.172 251.877" stroke="#164458" stroke-width="6.4" stroke-linejoin="round"/>
</g>
</g>
<defs>
<linearGradient id="paint0_linear_14_150108" x1="104.036" y1="426.643" x2="769.42" y2="425.282" gradientUnits="userSpaceOnUse">
<stop stop-color="white"/>
<stop offset="0.17" stop-color="white" stop-opacity="0.5"/>
<stop offset="0.33" stop-color="white" stop-opacity="0"/>
<stop offset="0.5" stop-color="white" stop-opacity="0"/>
<stop offset="0.66" stop-color="white" stop-opacity="0"/>
<stop offset="0.83" stop-color="white" stop-opacity="0.5"/>
<stop offset="1" stop-color="white"/>
</linearGradient>
<linearGradient id="paint1_linear_14_150108" x1="104.036" y1="426.643" x2="769.42" y2="425.282" gradientUnits="userSpaceOnUse">
<stop/>
<stop offset="0.25"/>
<stop offset="0.5"/>
<stop offset="0.75"/>
<stop offset="1"/>
</linearGradient>
<clipPath id="clip0_14_150108">
<rect width="870.85" height="870.85" fill="white"/>
</clipPath>
</defs>
</svg>
