<svg width="871" height="871" viewBox="0 0 871 871" fill="none" xmlns="http://www.w3.org/2000/svg">
<g clip-path="url(#clip0_14_210876)">
<mask id="mask0_14_210876" style="mask-type:luminance" maskUnits="userSpaceOnUse" x="0" y="0" width="871" height="871">
<path d="M870.85 0H0V870.85H870.85V0Z" fill="white"/>
</mask>
<g mask="url(#mask0_14_210876)">
<path d="M791.324 469.69C776.56 421.335 740.588 406.262 724.763 371.534C734.044 262.715 693.298 185.738 630.794 166.492C583.72 151.995 542.737 169.957 512.415 203.525C488.908 210.459 464.427 217.926 435.421 217.926C406.416 217.926 381.936 210.459 358.43 203.525C328.108 169.957 287.125 151.995 240.053 166.492C177.548 185.738 136.8 262.715 146.082 371.534C130.258 406.262 94.2861 421.335 79.5219 469.69C64.8867 517.623 74.0078 588.014 148.433 644.982C222.858 701.948 342.519 724.547 435.421 724.547C528.325 724.547 647.985 701.948 722.412 644.982C796.837 588.014 805.959 517.623 791.324 469.69Z" fill="url(#paint0_linear_14_210876)"/>
<path d="M791.324 469.69C776.56 421.335 740.588 406.262 724.763 371.534C734.044 262.715 693.298 185.738 630.794 166.492C583.72 151.995 542.737 169.957 512.415 203.525C488.908 210.459 464.427 217.926 435.421 217.926C406.416 217.926 381.936 210.459 358.43 203.525C328.108 169.957 287.125 151.995 240.053 166.492C177.548 185.738 136.8 262.715 146.082 371.534C130.258 406.262 94.2861 421.335 79.5219 469.69C64.8867 517.623 74.0078 588.014 148.433 644.982C222.858 701.948 342.519 724.547 435.421 724.547C528.325 724.547 647.985 701.948 722.412 644.982C796.837 588.014 805.959 517.623 791.324 469.69Z" stroke="#6F9246" stroke-width="7.68" stroke-linecap="round" stroke-linejoin="round"/>
<g opacity="0.2">
<path d="M722.413 644.972C647.988 701.942 528.333 724.539 435.424 724.539C342.515 724.539 170.939 700.762 100.812 594.796C74.0152 551.209 69.1902 515.524 74.9672 486.134C86.7073 426.413 142.222 392.695 146.084 371.536C148.349 389.231 153.816 403.612 161.545 414.981L147.537 413.549C74.8382 477.945 119.06 572.345 184.733 611.099C252.305 657.323 354.272 673.918 435.424 673.918C516.575 673.918 611.074 657.659 686.114 612.732C801.114 536.626 756.041 449.031 725.727 411.835L708.997 415.429C716.885 403.991 722.468 389.466 724.764 371.536C757.741 417.564 873.402 506.011 722.413 644.972Z" fill="url(#paint1_linear_14_210876)"/>
</g>
<path d="M791.324 469.69C776.56 421.335 740.588 406.262 724.763 371.534C734.044 262.715 693.298 185.738 630.794 166.492C583.72 151.995 542.737 169.957 512.415 203.525C488.908 210.459 464.427 217.926 435.421 217.926C406.416 217.926 381.936 210.459 358.43 203.525C328.108 169.957 287.125 151.995 240.053 166.492C177.548 185.738 136.8 262.715 146.082 371.534C130.258 406.262 94.2861 421.335 79.5219 469.69C64.8867 517.623 74.0078 588.014 148.433 644.982C222.858 701.948 342.519 724.547 435.421 724.547C528.325 724.547 647.985 701.948 722.412 644.982C796.837 588.014 805.959 517.623 791.324 469.69Z" stroke="#6F9246" stroke-width="7.68" stroke-linecap="round" stroke-linejoin="round"/>
<g opacity="0.8">
<mask id="mask1_14_210876" style="mask-type:luminance" maskUnits="userSpaceOnUse" x="202" y="216" width="459" height="363">
<path d="M660.759 397.517C660.759 497.457 558.201 578.477 431.688 578.477C305.175 578.477 202.617 497.457 202.617 397.517C202.617 297.577 305.175 216.558 431.688 216.558C558.201 216.558 660.759 297.577 660.759 397.517Z" fill="url(#paint2_radial_14_210876)"/>
</mask>
<g mask="url(#mask1_14_210876)">
<path d="M660.759 397.517C660.759 497.457 558.201 578.477 431.688 578.477C305.175 578.477 202.617 497.457 202.617 397.517C202.617 297.577 305.175 216.558 431.688 216.558C558.201 216.558 660.759 297.577 660.759 397.517Z" fill="url(#paint3_radial_14_210876)"/>
</g>
</g>
<mask id="mask2_14_210876" style="mask-type:luminance" maskUnits="userSpaceOnUse" x="144" y="162" width="239" height="288">
<path d="M276.661 440.754C223.888 462.193 155.749 447.089 146.083 371.538C136.808 262.709 177.548 185.736 240.053 166.485C278.523 154.649 343.577 162.434 375.205 237.416C400.888 311.008 356.948 408.131 276.661 440.754Z" fill="url(#paint4_linear_14_210876)"/>
</mask>
<g mask="url(#mask2_14_210876)">
<path d="M276.661 440.754C223.888 462.193 155.749 447.089 146.083 371.538C136.808 262.709 177.548 185.736 240.053 166.485C278.523 154.649 343.577 162.434 375.205 237.416C400.888 311.008 356.948 408.131 276.661 440.754Z" fill="url(#paint5_linear_14_210876)"/>
</g>
<g opacity="0.8">
<mask id="mask3_14_210876" style="mask-type:luminance" maskUnits="userSpaceOnUse" x="144" y="162" width="239" height="289">
<path d="M273.716 442.22C220.466 462.458 152.743 445.458 145.021 369.683C138.543 260.653 181.22 184.749 244.165 167.105C335.592 140.725 375.44 236.388 376.533 241.556C399.872 316.236 354.146 411.653 273.716 442.22Z" fill="url(#paint6_radial_14_210876)"/>
</mask>
<g mask="url(#mask3_14_210876)">
<path d="M273.716 442.22C220.466 462.458 152.743 445.458 145.021 369.683C138.543 260.653 181.22 184.749 244.165 167.105C335.592 140.725 375.44 236.388 376.533 241.556C399.872 316.236 354.146 411.653 273.716 442.22Z" fill="url(#paint7_radial_14_210876)"/>
</g>
</g>
<g opacity="0.2">
<path d="M371.515 324.466C355.012 161.7 250.629 154.704 202.875 186.797C214.06 177.508 226.551 170.65 240.055 166.486C278.525 154.648 312.929 164.478 340.769 186.783C354.272 197.592 373.964 233.857 375.207 237.415C384.777 264.821 384.682 295.494 376.645 324.882C375.875 327.697 371.809 327.369 371.515 324.466Z" fill="url(#paint8_linear_14_210876)"/>
</g>
<g opacity="0.1">
<path d="M270.603 199.227C261.559 213.294 283.95 206.557 308.681 259.787C323.18 290.993 341.33 257.163 312.213 216.682C296.862 195.339 274.687 192.872 270.603 199.227Z" fill="white"/>
</g>
<mask id="mask4_14_210876" style="mask-type:luminance" maskUnits="userSpaceOnUse" x="163" y="194" width="156" height="233">
<path d="M240.928 426.805C198.004 426.805 163.207 374.898 163.207 310.868C163.207 246.84 198.004 194.932 240.928 194.932C283.852 194.932 318.65 246.84 318.65 310.868C318.65 374.898 283.852 426.805 240.928 426.805Z" fill="url(#paint9_radial_14_210876)"/>
</mask>
<g mask="url(#mask4_14_210876)">
<path d="M240.928 426.805C198.004 426.805 163.207 374.898 163.207 310.868C163.207 246.84 198.004 194.932 240.928 194.932C283.852 194.932 318.65 246.84 318.65 310.868C318.65 374.898 283.852 426.805 240.928 426.805Z" fill="url(#paint10_radial_14_210876)"/>
</g>
<g opacity="0.3">
<path d="M303.009 324.994C303.009 379.65 277.69 423.955 246.459 423.955C215.227 423.955 189.91 379.65 189.91 324.994C189.91 270.337 215.227 226.03 246.459 226.03C277.69 226.03 303.009 270.337 303.009 324.994Z" fill="url(#paint11_linear_14_210876)"/>
</g>
<g opacity="0.8">
<path d="M304.642 309.482C304.642 355.57 279.323 392.931 248.092 392.931C216.86 392.931 191.543 355.57 191.543 309.482C191.543 263.391 216.86 226.03 248.092 226.03C279.323 226.03 304.642 263.391 304.642 309.482Z" fill="#182C21"/>
</g>
<path d="M304.642 325.009C304.642 373.387 280.458 412.606 250.624 412.606C220.792 412.606 196.609 373.387 196.609 325.009C196.609 276.633 220.792 237.415 250.624 237.415C280.458 237.415 304.642 276.633 304.642 325.009Z" fill="url(#paint12_linear_14_210876)"/>
<path d="M292.491 325.009C292.491 366.166 273.747 399.532 250.625 399.532C227.503 399.532 208.762 366.166 208.762 325.009C208.762 283.853 227.503 250.489 250.625 250.489C273.747 250.489 292.491 283.853 292.491 325.009Z" fill="url(#paint13_linear_14_210876)"/>
<path d="M286.276 325.008C286.276 359.228 270.315 386.968 250.626 386.968C230.936 386.968 214.977 359.228 214.977 325.008C214.977 290.791 230.936 263.052 250.626 263.052C270.315 263.052 286.276 290.791 286.276 325.008Z" fill="url(#paint14_linear_14_210876)"/>
<g opacity="0.15">
<path d="M276.166 309.588C276.166 329.84 264.376 346.258 249.831 346.258C235.286 346.258 223.496 329.84 223.496 309.588C223.496 289.337 235.286 272.919 249.831 272.919C264.376 272.919 276.166 289.337 276.166 309.588Z" fill="url(#paint15_radial_14_210876)"/>
</g>
<path d="M262.479 282.561C262.479 289.752 257.171 295.587 250.625 295.587C244.08 295.587 238.773 289.752 238.773 282.561C238.773 275.369 244.08 269.536 250.625 269.536C257.171 269.536 262.479 275.369 262.479 282.561Z" fill="url(#paint16_linear_14_210876)"/>
<mask id="mask5_14_210876" style="mask-type:luminance" maskUnits="userSpaceOnUse" x="490" y="162" width="239" height="288">
<path d="M596.112 440.754C648.886 462.193 717.024 447.089 726.691 371.538C735.965 262.709 695.226 185.736 632.72 166.485C594.251 154.649 529.196 162.434 497.568 237.416C471.885 311.008 515.825 408.131 596.112 440.754Z" fill="url(#paint17_linear_14_210876)"/>
</mask>
<g mask="url(#mask5_14_210876)">
<path d="M596.112 440.754C648.886 462.193 717.024 447.089 726.691 371.538C735.965 262.709 695.226 185.736 632.72 166.485C594.251 154.649 529.196 162.434 497.568 237.416C471.885 311.008 515.825 408.131 596.112 440.754Z" fill="url(#paint18_linear_14_210876)"/>
</g>
<g opacity="0.8">
<mask id="mask6_14_210876" style="mask-type:luminance" maskUnits="userSpaceOnUse" x="490" y="162" width="239" height="289">
<path d="M599.057 442.22C652.308 462.458 720.03 445.458 727.753 369.683C734.231 260.653 691.554 184.749 628.608 167.105C537.182 140.725 497.333 236.388 496.24 241.556C472.901 316.236 518.628 411.653 599.057 442.22Z" fill="url(#paint19_radial_14_210876)"/>
</mask>
<g mask="url(#mask6_14_210876)">
<path d="M599.057 442.22C652.308 462.458 720.03 445.458 727.753 369.683C734.231 260.653 691.554 184.749 628.608 167.105C537.182 140.725 497.333 236.388 496.24 241.556C472.901 316.236 518.628 411.653 599.057 442.22Z" fill="url(#paint20_radial_14_210876)"/>
</g>
</g>
<g opacity="0.2">
<path d="M501.258 324.466C517.762 161.7 622.144 154.704 669.898 186.797C658.713 177.508 646.222 170.65 632.719 166.486C594.249 154.648 559.845 164.478 532.005 186.783C518.501 197.592 498.809 233.857 497.566 237.415C487.996 264.821 488.091 295.494 496.128 324.882C496.899 327.697 500.964 327.369 501.258 324.466Z" fill="url(#paint21_linear_14_210876)"/>
</g>
<g opacity="0.1">
<path d="M602.171 199.227C611.215 213.294 588.824 206.557 564.093 259.787C549.593 290.993 531.444 257.163 560.561 216.682C575.911 195.339 598.087 192.872 602.171 199.227Z" fill="white"/>
</g>
<g opacity="0.3">
<mask id="mask7_14_210876" style="mask-type:luminance" maskUnits="userSpaceOnUse" x="288" y="205" width="297" height="362">
<path d="M584.286 555.539C584.505 483.336 557.841 432.769 533.025 396.665C493.983 352.27 470.291 260.235 512.288 205.214C510.263 204.955 478.795 218.127 435.423 217.919C392.051 217.712 358.884 204.53 358.661 205.214C403.957 267.888 376.966 352.27 337.926 396.665C313.11 432.769 288.39 483.361 288.611 555.564C288.611 555.564 367.283 569.4 433.446 566.213C499.609 563.026 584.286 555.539 584.286 555.539Z" fill="url(#paint22_radial_14_210876)"/>
</mask>
<g mask="url(#mask7_14_210876)">
<path d="M584.286 555.539C584.505 483.336 557.841 432.769 533.025 396.665C493.983 352.27 470.291 260.235 512.288 205.214C510.263 204.955 478.795 218.127 435.423 217.919C392.051 217.712 358.884 204.53 358.661 205.214C403.957 267.888 376.966 352.27 337.926 396.665C313.11 432.769 288.39 483.361 288.611 555.564C288.611 555.564 367.283 569.4 433.446 566.213C499.609 563.026 584.286 555.539 584.286 555.539Z" fill="url(#paint23_radial_14_210876)"/>
</g>
</g>
<g opacity="0.2">
<path d="M490.306 291.673C483.154 262.364 482.581 240.714 482.581 240.714C467.084 244.957 453.941 246.803 435.425 246.803C417.854 246.803 403.811 243.668 389.018 239.732C389.018 239.732 389.166 261.955 382.161 292.752C383.482 273.762 382.272 236.847 355.352 203.516C378.848 210.455 406.424 217.919 435.425 217.919C464.424 217.919 497.634 208.754 521.129 201.814C504.736 218.561 488.152 248.328 490.306 291.673Z" fill="url(#paint24_linear_14_210876)"/>
</g>
<g opacity="0.15">
<path d="M483.972 292.751C495.203 292.751 480.984 298.357 504.198 351.148C518.048 382.647 496.872 363.789 484.296 328.827C472.836 296.965 480.24 292.751 483.972 292.751Z" fill="url(#paint25_linear_14_210876)"/>
<path d="M387.653 292.751C376.422 292.751 390.641 298.357 367.427 351.148C353.577 382.647 374.754 363.789 387.33 328.827C398.789 296.965 391.386 292.751 387.653 292.751Z" fill="url(#paint26_linear_14_210876)"/>
</g>
<mask id="mask8_14_210876" style="mask-type:luminance" maskUnits="userSpaceOnUse" x="551" y="194" width="157" height="233">
<path d="M629.631 426.805C672.555 426.805 707.352 374.898 707.352 310.868C707.352 246.84 672.555 194.932 629.631 194.932C586.706 194.932 551.909 246.84 551.909 310.868C551.909 374.898 586.706 426.805 629.631 426.805Z" fill="url(#paint27_radial_14_210876)"/>
</mask>
<g mask="url(#mask8_14_210876)">
<path d="M629.631 426.805C672.555 426.805 707.352 374.898 707.352 310.868C707.352 246.84 672.555 194.932 629.631 194.932C586.706 194.932 551.909 246.84 551.909 310.868C551.909 374.898 586.706 426.805 629.631 426.805Z" fill="url(#paint28_radial_14_210876)"/>
</g>
<g opacity="0.3">
<path d="M567.55 324.994C567.55 379.65 592.868 423.955 624.1 423.955C655.331 423.955 680.648 379.65 680.648 324.994C680.648 270.337 655.331 226.03 624.1 226.03C592.868 226.03 567.55 270.337 567.55 324.994Z" fill="url(#paint29_linear_14_210876)"/>
</g>
<g opacity="0.8">
<path d="M565.917 309.482C565.917 355.57 591.236 392.931 622.467 392.931C653.698 392.931 679.016 355.57 679.016 309.482C679.016 263.391 653.698 226.03 622.467 226.03C591.236 226.03 565.917 263.391 565.917 309.482Z" fill="#182C21"/>
</g>
<path d="M565.917 325.009C565.917 373.387 590.101 412.606 619.935 412.606C649.767 412.606 673.949 373.387 673.949 325.009C673.949 276.633 649.767 237.415 619.935 237.415C590.101 237.415 565.917 276.633 565.917 325.009Z" fill="url(#paint30_linear_14_210876)"/>
<path d="M578.068 325.009C578.068 366.166 596.811 399.532 619.934 399.532C643.055 399.532 661.797 366.166 661.797 325.009C661.797 283.853 643.055 250.489 619.934 250.489C596.811 250.489 578.068 283.853 578.068 325.009Z" fill="url(#paint31_linear_14_210876)"/>
<path d="M584.282 325.008C584.282 359.228 600.243 386.968 619.932 386.968C639.623 386.968 655.582 359.228 655.582 325.008C655.582 290.791 639.623 263.052 619.932 263.052C600.243 263.052 584.282 290.791 584.282 325.008Z" fill="url(#paint32_linear_14_210876)"/>
<g opacity="0.15">
<path d="M594.392 309.588C594.392 329.84 606.183 346.258 620.727 346.258C635.272 346.258 647.062 329.84 647.062 309.588C647.062 289.337 635.272 272.919 620.727 272.919C606.183 272.919 594.392 289.337 594.392 309.588Z" fill="url(#paint33_radial_14_210876)"/>
</g>
<path d="M608.08 282.561C608.08 289.752 613.388 295.587 619.934 295.587C626.478 295.587 631.785 289.752 631.785 282.561C631.785 275.369 626.478 269.536 619.934 269.536C613.388 269.536 608.08 275.369 608.08 282.561Z" fill="url(#paint34_linear_14_210876)"/>
<path d="M797.149 513.464C797.567 497.676 795.342 482.839 791.326 469.69C776.562 421.334 740.591 406.262 724.765 371.534C734.046 262.715 693.3 185.738 630.797 166.492C583.722 151.995 542.739 169.957 512.417 203.525C488.911 210.459 464.43 217.926 435.424 217.926C406.418 217.926 381.938 210.459 358.432 203.525C328.11 169.957 287.127 151.995 240.056 166.492C177.55 185.738 136.803 262.715 146.084 371.534C130.26 406.262 94.2884 421.334 79.5242 469.69C76.1606 480.705 74.0526 492.904 73.7031 505.855" stroke="#416137" stroke-width="7.68" stroke-linecap="round" stroke-linejoin="round"/>
<path d="M359.065 405.234C341.534 392.269 313.573 425.596 330.7 441.09C347.348 456.153 376.027 420.232 359.065 405.234Z" fill="url(#paint35_linear_14_210876)"/>
<path d="M359.065 405.234C341.534 392.269 313.573 425.596 330.7 441.09C347.348 456.153 376.027 420.232 359.065 405.234Z" stroke="#B2EE79" stroke-width="3.84"/>
<path d="M510.661 405.234C528.193 392.269 556.154 425.596 539.027 441.09C522.378 456.153 493.699 420.232 510.661 405.234Z" fill="url(#paint36_linear_14_210876)"/>
<path d="M510.661 405.234C528.193 392.269 556.154 425.596 539.027 441.09C522.378 456.153 493.699 420.232 510.661 405.234Z" stroke="#B2EE79" stroke-width="3.84"/>
<path d="M742.781 515.366L435.425 581.407C235.39 581.407 128.066 515.366 128.066 515.366C191.546 655.992 334.476 673.919 435.425 673.919C535.982 673.919 679.295 657.463 742.781 515.366Z" fill="url(#paint37_radial_14_210876)" fill-opacity="0.2"/>
<path d="M742.781 515.366L435.425 561.102C235.39 561.102 128.066 515.366 128.066 515.366C196.612 592.414 339.841 622.781 435.425 622.781C531.007 622.781 680.928 590.341 742.781 515.366Z" fill="url(#paint38_radial_14_210876)"/>
<path d="M741.426 512.695C741.426 512.695 635.457 533.344 435.423 533.344C235.388 533.344 129.418 512.695 129.418 512.695C222.518 588.962 339.839 593.39 435.423 593.39C531.004 593.39 648.326 588.962 741.426 512.695Z" fill="url(#paint39_radial_14_210876)" fill-opacity="0.3"/>
<path d="M744.48 513.135C745.801 512.105 614.016 548.109 435.424 548.042C267.888 547.684 191.347 528.124 126.867 512.697C214.309 591.908 356.334 604.13 435.424 604.822C514.514 605.515 653.985 589.356 744.48 513.135Z" fill="url(#paint40_linear_14_210876)"/>
<path d="M584.535 588.079C532.596 600.3 508.138 603.739 435.001 604.839C361.864 605.939 285.219 588.374 285.219 588.374C285.219 588.374 304.782 561.338 355.612 545.977C380.43 547.264 407.063 547.579 435.426 547.579C463.788 547.579 490.632 546.951 515.451 545.664C566.282 561.025 584.535 588.079 584.535 588.079Z" fill="url(#paint41_radial_14_210876)"/>
</g>
</g>
<defs>
<linearGradient id="paint0_linear_14_210876" x1="431.563" y1="280.508" x2="435.688" y2="698.118" gradientUnits="userSpaceOnUse">
<stop stop-color="#4F773B"/>
<stop offset="0.24" stop-color="#60904E"/>
<stop offset="0.49" stop-color="#70A861"/>
<stop offset="0.6" stop-color="#8BB768"/>
<stop offset="0.72" stop-color="#A6C56E"/>
<stop offset="0.83" stop-color="#CDE080"/>
<stop offset="0.94" stop-color="#F3FC92"/>
</linearGradient>
<linearGradient id="paint1_linear_14_210876" x1="432.576" y1="388.219" x2="440.625" y2="672.632" gradientUnits="userSpaceOnUse">
<stop stop-color="#FFFDAB" stop-opacity="0"/>
<stop offset="0.5" stop-color="#FFFDAB" stop-opacity="0.5"/>
<stop offset="1" stop-color="#FFFDAB"/>
</linearGradient>
<radialGradient id="paint2_radial_14_210876" cx="0" cy="0" r="1" gradientUnits="userSpaceOnUse" gradientTransform="translate(434.799 407.594) scale(199.792 158.116)">
<stop offset="0.15" stop-color="white"/>
<stop offset="0.64" stop-color="white" stop-opacity="0.5"/>
<stop offset="1" stop-color="white" stop-opacity="0"/>
</radialGradient>
<radialGradient id="paint3_radial_14_210876" cx="0" cy="0" r="1" gradientUnits="userSpaceOnUse" gradientTransform="translate(434.799 407.594) scale(199.792 158.116)">
<stop stop-color="#C4FB86"/>
<stop offset="0.78" stop-color="#98E474"/>
<stop offset="1" stop-color="#6DCE62"/>
</radialGradient>
<linearGradient id="paint4_linear_14_210876" x1="193.915" y1="225.682" x2="287.954" y2="383.084" gradientUnits="userSpaceOnUse">
<stop offset="0.2" stop-color="white"/>
<stop offset="0.6" stop-color="white" stop-opacity="0.5"/>
<stop offset="1" stop-color="white" stop-opacity="0"/>
</linearGradient>
<linearGradient id="paint5_linear_14_210876" x1="193.915" y1="225.682" x2="287.954" y2="383.084" gradientUnits="userSpaceOnUse">
<stop stop-color="#47673D"/>
<stop offset="0.68" stop-color="#47673D"/>
<stop offset="1" stop-color="#47673D"/>
</linearGradient>
<radialGradient id="paint6_radial_14_210876" cx="0" cy="0" r="1" gradientUnits="userSpaceOnUse" gradientTransform="translate(297.192 236.627) rotate(-28) scale(87.6051 125.15)">
<stop offset="0.2" stop-color="white"/>
<stop offset="0.6" stop-color="white" stop-opacity="0.5"/>
<stop offset="1" stop-color="white" stop-opacity="0"/>
</radialGradient>
<radialGradient id="paint7_radial_14_210876" cx="0" cy="0" r="1" gradientUnits="userSpaceOnUse" gradientTransform="translate(297.192 236.627) rotate(-28) scale(87.6051 125.15)">
<stop offset="0.2" stop-color="#C4FB86"/>
<stop offset="0.69" stop-color="#C4FB86"/>
<stop offset="1" stop-color="#C4FB86"/>
</radialGradient>
<linearGradient id="paint8_linear_14_210876" x1="316.91" y1="199.95" x2="371.478" y2="316.987" gradientUnits="userSpaceOnUse">
<stop stop-color="#29582E"/>
<stop offset="0.5" stop-color="#29582E" stop-opacity="0.5"/>
<stop offset="1" stop-color="#29582E" stop-opacity="0"/>
</linearGradient>
<radialGradient id="paint9_radial_14_210876" cx="0" cy="0" r="1" gradientUnits="userSpaceOnUse" gradientTransform="translate(242.418 310.868) scale(70.1515 108.35)">
<stop offset="0.45" stop-color="white"/>
<stop offset="0.73" stop-color="white" stop-opacity="0.5"/>
<stop offset="1" stop-color="white" stop-opacity="0"/>
</radialGradient>
<radialGradient id="paint10_radial_14_210876" cx="0" cy="0" r="1" gradientUnits="userSpaceOnUse" gradientTransform="translate(242.418 310.868) scale(70.1515 108.35)">
<stop offset="0.48" stop-color="#182C21"/>
<stop offset="0.74" stop-color="#182C21"/>
<stop offset="1" stop-color="#182C21"/>
</radialGradient>
<linearGradient id="paint11_linear_14_210876" x1="248.219" y1="337.472" x2="208.525" y2="408.416" gradientUnits="userSpaceOnUse">
<stop stop-color="#6F9D51" stop-opacity="0"/>
<stop offset="0.5" stop-color="#91C665" stop-opacity="0.5"/>
<stop offset="1" stop-color="#B2EE79"/>
</linearGradient>
<linearGradient id="paint12_linear_14_210876" x1="252.281" y1="255.371" x2="251.447" y2="354.379" gradientUnits="userSpaceOnUse">
<stop stop-color="#625017"/>
<stop offset="0.5" stop-color="#A3912F"/>
<stop offset="1" stop-color="#E5D248"/>
</linearGradient>
<linearGradient id="paint13_linear_14_210876" x1="251.838" y1="294.282" x2="250.793" y2="374.736" gradientUnits="userSpaceOnUse">
<stop stop-color="#0D1010"/>
<stop offset="0.5" stop-color="#2F3644"/>
<stop offset="1" stop-color="#515B77"/>
</linearGradient>
<linearGradient id="paint14_linear_14_210876" x1="253.192" y1="295.336" x2="252.636" y2="367.65" gradientUnits="userSpaceOnUse">
<stop stop-color="#020A11"/>
<stop offset="0.5" stop-color="#191C1D"/>
<stop offset="1" stop-color="#302D29"/>
</linearGradient>
<radialGradient id="paint15_radial_14_210876" cx="0" cy="0" r="1" gradientUnits="userSpaceOnUse" gradientTransform="translate(250.629 309.588) scale(26.5092 37.3369)">
<stop offset="0.18" stop-color="white"/>
<stop offset="0.59" stop-color="white" stop-opacity="0.5"/>
<stop offset="1" stop-color="white" stop-opacity="0"/>
</radialGradient>
<linearGradient id="paint16_linear_14_210876" x1="250.726" y1="269.363" x2="250.731" y2="293.51" gradientUnits="userSpaceOnUse">
<stop stop-color="white"/>
<stop offset="0.5" stop-color="white" stop-opacity="0.5"/>
<stop offset="1" stop-color="white" stop-opacity="0"/>
</linearGradient>
<linearGradient id="paint17_linear_14_210876" x1="678.858" y1="225.682" x2="584.819" y2="383.084" gradientUnits="userSpaceOnUse">
<stop offset="0.2" stop-color="white"/>
<stop offset="0.6" stop-color="white" stop-opacity="0.5"/>
<stop offset="1" stop-color="white" stop-opacity="0"/>
</linearGradient>
<linearGradient id="paint18_linear_14_210876" x1="678.858" y1="225.682" x2="584.819" y2="383.084" gradientUnits="userSpaceOnUse">
<stop stop-color="#47673D"/>
<stop offset="0.68" stop-color="#47673D"/>
<stop offset="1" stop-color="#47673D"/>
</linearGradient>
<radialGradient id="paint19_radial_14_210876" cx="0" cy="0" r="1" gradientUnits="userSpaceOnUse" gradientTransform="translate(570.828 232.669) rotate(-152) scale(81.6 116.571)">
<stop offset="0.2" stop-color="white"/>
<stop offset="0.6" stop-color="white" stop-opacity="0.5"/>
<stop offset="1" stop-color="white" stop-opacity="0"/>
</radialGradient>
<radialGradient id="paint20_radial_14_210876" cx="0" cy="0" r="1" gradientUnits="userSpaceOnUse" gradientTransform="translate(570.828 232.669) rotate(-152) scale(81.6 116.571)">
<stop offset="0.2" stop-color="#C4FB86"/>
<stop offset="0.69" stop-color="#C4FB86"/>
<stop offset="1" stop-color="#C4FB86"/>
</radialGradient>
<linearGradient id="paint21_linear_14_210876" x1="555.864" y1="199.95" x2="501.296" y2="316.987" gradientUnits="userSpaceOnUse">
<stop stop-color="#29582E"/>
<stop offset="0.5" stop-color="#29582E" stop-opacity="0.5"/>
<stop offset="1" stop-color="#29582E" stop-opacity="0"/>
</linearGradient>
<radialGradient id="paint22_radial_14_210876" cx="0" cy="0" r="1" gradientUnits="userSpaceOnUse" gradientTransform="translate(434.166 417.453) scale(183.472 183.472)">
<stop offset="0.41" stop-color="white"/>
<stop offset="0.71" stop-color="white" stop-opacity="0.5"/>
<stop offset="1" stop-color="white" stop-opacity="0"/>
</radialGradient>
<radialGradient id="paint23_radial_14_210876" cx="0" cy="0" r="1" gradientUnits="userSpaceOnUse" gradientTransform="translate(434.166 417.453) scale(183.472 183.472)">
<stop offset="0.33" stop-color="#C4FB86"/>
<stop offset="0.67" stop-color="#98E474"/>
<stop offset="1" stop-color="#6DCE62"/>
</radialGradient>
<linearGradient id="paint24_linear_14_210876" x1="436.607" y1="207.6" x2="436.559" y2="260.02" gradientUnits="userSpaceOnUse">
<stop stop-color="white"/>
<stop offset="0.5" stop-color="white" stop-opacity="0.5"/>
<stop offset="1" stop-color="white" stop-opacity="0"/>
</linearGradient>
<linearGradient id="paint25_linear_14_210876" x1="497.765" y1="360.308" x2="496.752" y2="295.897" gradientUnits="userSpaceOnUse">
<stop stop-color="white"/>
<stop offset="0.5" stop-color="white" stop-opacity="0.5"/>
<stop offset="1" stop-color="white" stop-opacity="0"/>
</linearGradient>
<linearGradient id="paint26_linear_14_210876" x1="382.508" y1="360.308" x2="381.496" y2="295.897" gradientUnits="userSpaceOnUse">
<stop stop-color="white"/>
<stop offset="0.5" stop-color="white" stop-opacity="0.5"/>
<stop offset="1" stop-color="white" stop-opacity="0"/>
</linearGradient>
<radialGradient id="paint27_radial_14_210876" cx="0" cy="0" r="1" gradientUnits="userSpaceOnUse" gradientTransform="translate(628.141 310.868) rotate(180) scale(70.1515 108.35)">
<stop offset="0.45" stop-color="white"/>
<stop offset="0.73" stop-color="white" stop-opacity="0.5"/>
<stop offset="1" stop-color="white" stop-opacity="0"/>
</radialGradient>
<radialGradient id="paint28_radial_14_210876" cx="0" cy="0" r="1" gradientUnits="userSpaceOnUse" gradientTransform="translate(628.141 310.868) rotate(180) scale(70.1515 108.35)">
<stop offset="0.48" stop-color="#182C21"/>
<stop offset="0.74" stop-color="#182C21"/>
<stop offset="1" stop-color="#182C21"/>
</radialGradient>
<linearGradient id="paint29_linear_14_210876" x1="622.34" y1="337.472" x2="662.034" y2="408.416" gradientUnits="userSpaceOnUse">
<stop stop-color="#6F9D51" stop-opacity="0"/>
<stop offset="0.5" stop-color="#91C665" stop-opacity="0.5"/>
<stop offset="1" stop-color="#B2EE79"/>
</linearGradient>
<linearGradient id="paint30_linear_14_210876" x1="618.277" y1="255.371" x2="619.112" y2="354.379" gradientUnits="userSpaceOnUse">
<stop stop-color="#625017"/>
<stop offset="0.5" stop-color="#A3912F"/>
<stop offset="1" stop-color="#E5D248"/>
</linearGradient>
<linearGradient id="paint31_linear_14_210876" x1="618.721" y1="294.282" x2="619.766" y2="374.736" gradientUnits="userSpaceOnUse">
<stop stop-color="#0D1010"/>
<stop offset="0.5" stop-color="#2F3644"/>
<stop offset="1" stop-color="#515B77"/>
</linearGradient>
<linearGradient id="paint32_linear_14_210876" x1="617.367" y1="295.336" x2="617.922" y2="367.65" gradientUnits="userSpaceOnUse">
<stop stop-color="#020A11"/>
<stop offset="0.5" stop-color="#191C1D"/>
<stop offset="1" stop-color="#302D29"/>
</linearGradient>
<radialGradient id="paint33_radial_14_210876" cx="0" cy="0" r="1" gradientUnits="userSpaceOnUse" gradientTransform="translate(619.93 309.588) rotate(180) scale(26.5092 37.3369)">
<stop offset="0.18" stop-color="white"/>
<stop offset="0.59" stop-color="white" stop-opacity="0.5"/>
<stop offset="1" stop-color="white" stop-opacity="0"/>
</radialGradient>
<linearGradient id="paint34_linear_14_210876" x1="619.833" y1="269.363" x2="619.828" y2="293.51" gradientUnits="userSpaceOnUse">
<stop stop-color="white"/>
<stop offset="0.5" stop-color="white" stop-opacity="0.5"/>
<stop offset="1" stop-color="white" stop-opacity="0"/>
</linearGradient>
<linearGradient id="paint35_linear_14_210876" x1="333.226" y1="438.734" x2="353.093" y2="410.209" gradientUnits="userSpaceOnUse">
<stop stop-color="#587C40"/>
<stop offset="0.5" stop-color="#344728"/>
<stop offset="1" stop-color="#10110F"/>
</linearGradient>
<linearGradient id="paint36_linear_14_210876" x1="536.501" y1="438.734" x2="516.634" y2="410.209" gradientUnits="userSpaceOnUse">
<stop stop-color="#587C40"/>
<stop offset="0.5" stop-color="#344728"/>
<stop offset="1" stop-color="#10110F"/>
</linearGradient>
<radialGradient id="paint37_radial_14_210876" cx="0" cy="0" r="1" gradientUnits="userSpaceOnUse" gradientTransform="translate(436.626 592.841) scale(278.626 278.626)">
<stop offset="0.19" stop-color="#66903C"/>
<stop offset="0.6" stop-color="#66903C" stop-opacity="0.5"/>
<stop offset="1" stop-color="#66903C" stop-opacity="0"/>
</radialGradient>
<radialGradient id="paint38_radial_14_210876" cx="0" cy="0" r="1" gradientUnits="userSpaceOnUse" gradientTransform="translate(435.423 569.074) scale(317.493 317.493)">
<stop stop-color="#DFFC99"/>
<stop offset="0.5" stop-color="#DFFC99" stop-opacity="0.5"/>
<stop offset="1" stop-color="#DFFC99" stop-opacity="0"/>
</radialGradient>
<radialGradient id="paint39_radial_14_210876" cx="0" cy="0" r="1" gradientUnits="userSpaceOnUse" gradientTransform="translate(435.785 541.339) scale(248.475 248.475)">
<stop stop-color="#457737"/>
<stop offset="0.5" stop-color="#457737" stop-opacity="0.5"/>
<stop offset="1" stop-color="#457737" stop-opacity="0"/>
</radialGradient>
<linearGradient id="paint40_linear_14_210876" x1="402.179" y1="583.024" x2="403.184" y2="514.923" gradientUnits="userSpaceOnUse">
<stop stop-color="#540D08"/>
<stop offset="0.5" stop-color="#2A0604"/>
<stop offset="1"/>
</linearGradient>
<radialGradient id="paint41_radial_14_210876" cx="0" cy="0" r="1" gradientUnits="userSpaceOnUse" gradientTransform="translate(435.452 593.656) scale(148.475 45.2538)">
<stop stop-color="#D35145"/>
<stop offset="0.5" stop-color="#9D3029"/>
<stop offset="1" stop-color="#67100C"/>
</radialGradient>
<clipPath id="clip0_14_210876">
<rect width="870.85" height="870.85" fill="white"/>
</clipPath>
</defs>
</svg>
