<svg width="871" height="871" viewBox="0 0 871 871" fill="none" xmlns="http://www.w3.org/2000/svg">
<g clip-path="url(#clip0_19_347200)">
<mask id="mask0_19_347200" style="mask-type:luminance" maskUnits="userSpaceOnUse" x="0" y="0" width="871" height="871">
<path d="M870.85 0H0V870.85H870.85V0Z" fill="white"/>
</mask>
<g mask="url(#mask0_19_347200)">
<path d="M662.784 454.357C618.617 416.158 654.364 357.846 616.693 333.275C567.46 301.158 301.363 301.19 252.177 333.275C214.507 357.846 250.252 416.158 206.088 454.357C161.922 492.555 91.2327 532.886 91.7766 626.066C92.2868 713.728 173.168 756.953 233.365 769.239C291.484 781.1 412.343 782.13 432.92 782.22V782.23H435.95V782.22C456.526 782.13 577.388 781.1 635.505 769.239C695.702 756.953 776.583 713.728 777.093 626.066C777.635 532.886 706.95 492.555 662.784 454.357Z" stroke="#BC0067" stroke-width="7.92" stroke-miterlimit="10"/>
<path d="M662.784 454.357C618.617 416.158 654.364 357.846 616.693 333.275C567.46 301.158 301.363 301.19 252.177 333.275C214.507 357.846 250.252 416.158 206.088 454.357C161.922 492.555 91.2327 532.886 91.7766 626.066C92.2868 713.728 173.168 756.953 233.365 769.239C291.484 781.1 412.343 782.13 432.92 782.22V782.23H435.95V782.22C456.526 782.13 577.388 781.1 635.505 769.239C695.702 756.953 776.583 713.728 777.093 626.066C777.635 532.886 706.95 492.555 662.784 454.357Z" fill="#BC0067"/>
<path d="M191.55 466.403C191.55 466.403 184.288 355.441 207.958 321.38C231.628 287.317 293.403 267.689 426.765 264.226C560.128 260.762 637.577 291.553 658.274 312.539C685.116 339.759 685.985 438.001 684.83 473.795C683.676 509.589 205.74 529.447 191.55 466.403Z" fill="#A4A4A4"/>
<path d="M210.94 468.819C210.94 468.819 204.277 368.57 225.995 337.797C247.713 307.024 304.391 289.289 426.752 286.161C549.113 283.032 620.173 310.849 639.162 329.81C663.791 354.401 664.588 443.158 663.529 475.495C662.469 507.833 223.96 525.775 210.94 468.819Z" fill="#BC0067"/>
<path d="M210.94 468.819C210.94 468.819 204.277 368.57 225.995 337.797C247.713 307.024 304.391 289.289 426.752 286.161C549.113 283.032 620.173 310.849 639.162 329.81C663.791 354.401 664.588 443.158 663.529 475.495C662.469 507.833 223.96 525.775 210.94 468.819Z" stroke="#740241" stroke-width="7.7616"/>
<path d="M191.55 466.403C191.55 466.403 184.288 355.441 207.958 321.38C231.628 287.317 293.403 267.689 426.765 264.226C560.128 260.762 637.577 291.553 658.274 312.539C685.116 339.759 685.985 438.001 684.83 473.795C683.676 509.589 205.74 529.447 191.55 466.403Z" stroke="#5E5E5E" stroke-width="7.92" stroke-miterlimit="10"/>
<path d="M191.558 466.403C191.558 466.403 184.296 355.441 207.966 321.38C231.636 287.317 293.41 267.689 426.773 264.226C560.135 260.762 637.585 291.553 658.281 312.539C685.124 339.759 685.993 438.001 684.838 473.795C683.684 509.589 205.748 529.447 191.558 466.403Z" fill="#E1E1E1"/>
<path d="M207.257 468.512C207.257 468.512 200.457 366.217 222.619 334.816C244.78 303.416 302.614 285.319 427.473 282.127C552.331 278.934 624.841 307.319 644.218 326.667C669.349 351.76 670.163 442.328 669.082 475.325C668.001 508.322 220.542 526.631 207.257 468.512Z" fill="#A3A3A3"/>
<path d="M191.558 466.403C191.558 466.403 184.296 355.441 207.966 321.38C231.636 287.317 293.41 267.689 426.773 264.226C560.135 260.762 637.585 291.553 658.281 312.539C685.124 339.759 685.993 438.001 684.838 473.795C683.684 509.589 205.748 529.447 191.558 466.403Z" stroke="#5E5E5E" stroke-width="7.92" stroke-miterlimit="10"/>
<path d="M662.784 454.357C618.617 416.158 654.364 357.846 616.693 333.275C567.46 301.158 301.363 301.19 252.177 333.275C214.507 357.846 250.252 416.158 206.088 454.357C161.922 492.555 91.2327 532.886 91.7766 626.066C92.2868 713.728 173.168 756.953 233.365 769.239C291.484 781.1 412.343 782.13 432.92 782.22V782.23H435.95V782.22C456.526 782.13 577.388 781.1 635.505 769.239C695.702 756.953 776.583 713.728 777.093 626.066C777.635 532.886 706.95 492.555 662.784 454.357Z" fill="#FFBCDB"/>
<path d="M615.939 451.952C575.96 418.955 606.603 370.267 572.503 349.042C540.429 329.076 448.444 331.336 434.433 331.621C420.421 331.336 328.436 327.393 296.362 347.358C262.264 368.583 292.907 417.271 252.927 450.268C212.948 483.265 105.906 499.482 105.906 617.118C105.906 692.841 181.728 742.164 262.526 749.399C362.434 758.347 553.731 759.645 606.341 749.399C660.831 738.787 761.268 714.886 761.268 612.066C761.268 500.569 655.917 484.949 615.939 451.952Z" fill="#FF73B3"/>
<path d="M625.227 747.179C549.756 763.154 327.177 764.87 243.628 747.179C186.511 735.071 104.709 692.492 104.221 606.142C104.035 573.05 117.69 546.728 130.723 524.818L148.557 507.285C76.8241 586.072 190.502 642.426 244.47 655.902C318.101 674.286 544.575 671.58 624.4 655.902C684.329 644.142 787.416 596.621 721.997 512.658C730.315 521.052 739.442 530.772 747.845 542.183C797.729 639.567 730.447 724.873 625.227 747.179Z" fill="#EA4A93"/>
<g opacity="0.1">
<path d="M597.367 433.588C455.267 399.404 340.811 420.184 271.294 434.209C249.289 438.648 229.039 420.763 230.918 398.393C233.102 372.372 230.655 347.32 252.179 333.28C301.405 301.156 567.509 301.188 616.686 333.28C638.058 347.214 635.811 371.995 637.915 397.806C639.743 420.25 619.261 438.855 597.367 433.588Z" fill="#CC0052"/>
</g>
<path d="M738.099 521.225C675.14 444.058 612.18 471.332 612.18 372.017C612.18 327.149 635.186 349.379 635.417 366.073C635.841 396.88 632.975 428.578 662.78 454.358C685.31 473.841 714.761 493.879 738.099 521.225Z" fill="#EA4A9F"/>
<path d="M738.099 521.225C675.14 444.058 612.18 471.332 612.18 372.017C612.18 327.149 635.186 349.379 635.417 366.073C635.841 396.88 632.975 428.578 662.78 454.358C685.31 473.841 714.761 493.879 738.099 521.225Z" stroke="#BB0067" stroke-width="7.92" stroke-miterlimit="10"/>
<path d="M130.633 521.226C193.593 444.059 256.553 471.333 256.553 372.018C256.553 327.15 234.117 353.13 233.315 366.074C233.298 366.343 233.585 366.091 233.315 366.074C229.173 393.622 235.757 428.579 205.952 454.359C183.422 473.842 153.971 493.88 130.633 521.226Z" fill="#EA4A9F"/>
<path d="M233.315 366.074C234.117 353.13 256.553 327.15 256.553 372.018C256.553 471.333 193.593 444.059 130.633 521.226C153.971 493.88 183.422 473.842 205.952 454.359C235.757 428.579 229.173 393.622 233.315 366.074ZM233.315 366.074C233.298 366.343 233.585 366.091 233.315 366.074Z" stroke="#BB0067" stroke-width="7.92" stroke-miterlimit="10"/>
<path d="M662.784 454.357C618.617 416.158 654.364 357.846 616.693 333.275C567.46 301.158 301.363 301.19 252.177 333.275C214.507 357.846 250.252 416.158 206.088 454.357C161.922 492.555 91.2327 532.886 91.7766 626.066C92.2868 713.728 173.168 756.953 233.365 769.239C291.484 781.1 412.343 782.13 432.92 782.22V782.23H435.95V782.22C456.526 782.13 577.388 781.1 635.505 769.239C695.702 756.953 776.583 713.728 777.093 626.066C777.635 532.886 706.95 492.555 662.784 454.357Z" stroke="#BB0067" stroke-width="7.92" stroke-miterlimit="10"/>
<g opacity="0.3">
<path d="M592.951 535.136C481.821 516.113 348.404 517.073 250.863 535.136C138.239 555.992 186.593 624.674 420.949 623.479C695.208 622.081 736.835 559.764 592.951 535.136Z" fill="#FFAFD7"/>
</g>
<path d="M777.095 626.064C776.573 713.727 695.697 756.952 635.498 769.244C556.132 785.429 321.339 787.187 233.356 769.244C173.158 756.952 92.2818 713.727 91.7766 626.064C91.5072 580.431 108.312 547.478 130.725 521.243C117.691 543.487 104.035 570.21 104.22 603.804C104.709 691.466 186.511 734.691 243.628 746.983C327.274 764.963 549.793 763.192 625.227 746.983C682.344 734.691 764.146 691.466 764.634 603.804C764.819 570.194 751.163 543.47 738.096 521.227C760.542 547.461 777.364 580.431 777.095 626.064Z" fill="#DD1877"/>
<path d="M777.095 626.064C776.573 713.727 695.697 756.952 635.498 769.244C556.132 785.429 321.339 787.187 233.356 769.244C173.158 756.952 92.2818 713.727 91.7766 626.064C91.5072 580.431 108.312 547.478 130.725 521.243C117.691 543.487 104.035 570.21 104.22 603.804C104.709 691.466 186.511 734.691 243.628 746.983C327.274 764.963 549.793 763.192 625.227 746.983C682.344 734.691 764.146 691.466 764.634 603.804C764.819 570.194 751.163 543.47 738.097 521.227C760.542 547.461 777.364 580.431 777.095 626.064Z" stroke="#BB0067" stroke-width="7.92" stroke-linecap="round" stroke-linejoin="round"/>
<path d="M468.32 236.43L476.378 248.885C480.4 255.1 487.641 258.903 495.453 258.903H524.915" stroke="#5E5E5E" stroke-width="7.92" stroke-linecap="round" stroke-linejoin="round"/>
<path d="M428.711 213.306C428.711 227.973 440.599 239.863 455.266 239.863C469.934 239.863 481.824 227.973 481.824 213.306C481.824 198.64 469.934 186.75 455.266 186.75C440.599 186.75 428.711 198.64 428.711 213.306Z" fill="#A3A3A3"/>
<path d="M470.817 205.963C470.817 211.973 465.944 216.844 459.934 216.844C453.926 216.844 449.055 211.973 449.055 205.963C449.055 199.953 453.926 195.082 459.934 195.082C465.944 195.082 470.817 199.953 470.817 205.963Z" fill="#E1E1E1"/>
<path d="M428.711 213.306C428.711 227.973 440.599 239.863 455.266 239.863C469.934 239.863 481.824 227.973 481.824 213.306C481.824 198.64 469.934 186.75 455.266 186.75C440.599 186.75 428.711 198.64 428.711 213.306Z" stroke="#5E5E5E" stroke-width="7.92" stroke-miterlimit="10"/>
<path d="M407.948 229.086L398.543 244.748C393.85 252.562 385.402 257.345 376.286 257.345H341.906" stroke="#5E5E5E" stroke-width="7.92" stroke-linecap="round" stroke-linejoin="round"/>
<path d="M446.222 205.959C446.222 220.625 434.332 232.515 419.666 232.515C404.997 232.515 393.109 220.625 393.109 205.959C393.109 191.292 404.997 179.402 419.666 179.402C434.332 179.402 446.222 191.292 446.222 205.959Z" fill="#A3A3A3"/>
<path d="M426.661 197.627C426.661 203.637 421.789 208.508 415.78 208.508C409.772 208.508 404.898 203.637 404.898 197.627C404.898 191.618 409.772 186.746 415.78 186.746C421.789 186.746 426.661 191.618 426.661 197.627Z" fill="#E1E1E1"/>
<path d="M446.222 205.959C446.222 220.625 434.332 232.515 419.666 232.515C404.997 232.515 393.109 220.625 393.109 205.959C393.109 191.292 404.997 179.402 419.666 179.402C434.332 179.402 446.222 191.292 446.222 205.959Z" stroke="#5E5E5E" stroke-width="7.92" stroke-miterlimit="10"/>
</g>
</g>
<defs>
<clipPath id="clip0_19_347200">
<rect width="870.85" height="870.85" fill="white"/>
</clipPath>
</defs>
</svg>
