<svg width="871" height="871" viewBox="0 0 871 871" fill="none" xmlns="http://www.w3.org/2000/svg">
<g clip-path="url(#clip0_19_297995)">
<mask id="mask0_19_297995" style="mask-type:luminance" maskUnits="userSpaceOnUse" x="0" y="0" width="871" height="871">
<path d="M870.85 0H0V870.85H870.85V0Z" fill="white"/>
</mask>
<g mask="url(#mask0_19_297995)">
<path d="M432.039 787.12C432.039 596.284 586.555 441.54 777.302 441.166" stroke="#5705AD" stroke-width="36" stroke-miterlimit="10"/>
<path d="M432.113 779.833C435.937 594.786 585.056 445.44 770.017 441.256" stroke="#6B1EC8" stroke-width="26" stroke-miterlimit="10"/>
<g opacity="0.5">
<path d="M777.729 412.463V471.582H775.128C609.767 469.017 460.515 611.041 460.37 787.119H400.969C400.969 577.236 565.325 412.463 774.698 412.463H777.729Z" fill="url(#paint0_radial_19_297995)"/>
</g>
<g opacity="0.08">
<path d="M432.113 779.833C435.937 594.786 585.056 445.44 770.017 441.256" stroke="white" stroke-width="10" stroke-miterlimit="10"/>
</g>
<path d="M374.445 787.117C374.445 564.428 554.82 383.867 777.438 383.566" stroke="#0051E0" stroke-width="36" stroke-miterlimit="10"/>
<path d="M374.512 779.66C378.439 562.892 553.284 387.864 769.98 383.645" stroke="#026FE3" stroke-width="26" stroke-miterlimit="10"/>
<g opacity="0.08">
<path d="M374.512 779.66C378.439 562.892 553.284 387.864 769.98 383.645" stroke="white" stroke-width="10" stroke-miterlimit="10"/>
</g>
<path d="M316.742 787.118C316.742 532.573 522.931 326.187 777.401 325.867" stroke="#00B700" stroke-width="36"/>
<path d="M316.805 779.484C320.838 531.001 521.361 330.283 769.767 325.939" stroke="#02CC00" stroke-width="26"/>
<g opacity="0.15">
<path d="M316.805 779.484C320.838 531.001 521.361 330.283 769.767 325.939" stroke="white" stroke-width="10"/>
</g>
<path d="M257.68 787.119C257.68 499.956 490.311 267.124 777.399 266.803" stroke="#EAAD00" stroke-width="36" stroke-linejoin="bevel"/>
<path d="M257.738 779.301C261.877 498.343 488.701 271.322 769.582 266.869" stroke="#F7D524" stroke-width="26" stroke-linejoin="bevel"/>
<g opacity="0.25">
<path d="M257.738 779.301C261.877 498.343 488.701 271.322 769.582 266.869" stroke="white" stroke-width="10" stroke-miterlimit="10"/>
</g>
<path d="M197.43 787.117C197.43 466.733 456.948 206.963 777.236 206.553" stroke="#ED7600" stroke-width="36" stroke-linejoin="bevel"/>
<path d="M197.48 779.101C201.729 465.079 455.293 211.269 769.217 206.617" stroke="#F29309" stroke-width="26" stroke-linejoin="bevel"/>
<g opacity="0.2">
<path d="M197.48 779.101C201.729 465.079 455.293 211.269 769.217 206.617" stroke="white" stroke-width="10" stroke-miterlimit="10"/>
</g>
<path d="M136.848 787.119C136.848 433.251 423.529 146.342 777.31 145.973" stroke="#BF0000" stroke-width="36" stroke-miterlimit="10"/>
<path d="M136.898 778.903C141.26 431.556 421.835 150.757 769.095 146.033" stroke="#F20A16" stroke-width="26" stroke-miterlimit="10"/>
<g opacity="0.2">
<path d="M136.898 778.903C141.26 431.556 421.835 150.757 769.095 146.033" stroke="white" stroke-width="10" stroke-miterlimit="10"/>
</g>
<g opacity="0.4">
<path d="M607.058 286.629C666.597 364.965 631.387 483.856 561.213 548.719C479.402 624.337 375.346 647.874 276.217 559.34C202.502 493.504 286.572 303.665 340.644 262.565C394.717 221.465 547.519 208.293 607.058 286.629Z" fill="url(#paint1_radial_19_297995)"/>
</g>
</g>
</g>
<defs>
<radialGradient id="paint0_radial_19_297995" cx="0" cy="0" r="1" gradientUnits="userSpaceOnUse" gradientTransform="translate(699.143 709.95) scale(423.72 423.72)">
<stop offset="0.55" stop-color="#5705AD"/>
<stop offset="0.56" stop-color="#5705AD" stop-opacity="0.5"/>
<stop offset="0.61" stop-color="#5705AD" stop-opacity="0"/>
</radialGradient>
<radialGradient id="paint1_radial_19_297995" cx="0" cy="0" r="1" gradientUnits="userSpaceOnUse" gradientTransform="translate(451.193 409.507) scale(178.819 178.819)">
<stop stop-color="white"/>
<stop offset="0.58" stop-color="white" stop-opacity="0.5"/>
<stop offset="1" stop-color="white" stop-opacity="0"/>
</radialGradient>
<clipPath id="clip0_19_297995">
<rect width="870.85" height="870.85" fill="white"/>
</clipPath>
</defs>
</svg>
